<svg xmlns="http://www.w3.org/2000/svg" width="403.28" height="44.83" viewBox="0 0 403.28 44.83">
  <g id="Layer_2" data-name="Layer 2">
    <g id="Layer_1-2" data-name="Layer 1">
      <g>
        <g>
          <path d="M21.18,14.77h.29V15a.41.41,0,0,0,.38.25c.12.06.25,0,.43,0H34.69c.32-.13.23-.11.32-.43h.27v3.28h-.2a.45.45,0,0,0-.3-.42,2.18,2.18,0,0,0-.47-.09c-.36,0-.79,0-1,0h-3.6V28.4a3.7,3.7,0,0,0,0,.58c.18.28.24.32.47.32l0,.24h-3.7v-.26c.23,0,.25,0,.37-.28s0-.33,0-.51V17.54H22.23a4.7,4.7,0,0,0-.51,0c-.2.09-.25.16-.25.49h-.29Z" style="fill: #1d4ed8"/>
          <path d="M44.73,15.17c2-.24,5.76.32,7.78,2.75a7.88,7.88,0,0,1,1.26,6.93,6.89,6.89,0,0,1-4.88,4.67c-2.4.68-6.21.54-8.75-1.62a7.83,7.83,0,0,1-2.33-6.43A6.58,6.58,0,0,1,41.76,16,8.15,8.15,0,0,1,44.73,15.17Zm-3.6,4.77a5.93,5.93,0,0,0,.12,5.36c1.33,2.11,3.89,2.36,5.28,2.27a5.2,5.2,0,0,0,4.34-2.81,6.29,6.29,0,0,0-.4-5.16,6,6,0,0,0-5.22-2.15A5.06,5.06,0,0,0,41.13,19.94Z" style="fill: #1d4ed8"/>
          <path d="M56.59,15.22h9c1.53,0,4,.09,5.19,2.29a4.39,4.39,0,0,1-.13,4.14,4.86,4.86,0,0,1-3.24,1.94L71,28.67c.45.59.29.47.9.67l0,.2H67.54v-.2l.32-.18c0-.07,0-.07,0-.18l-.13-.22-3.75-5.29H60v5A2.38,2.38,0,0,0,60,29a.53.53,0,0,0,.52.3v.26H56.59v-.26c.21-.07.34.08.54-.21a3.79,3.79,0,0,0,0-.58v-12a3.45,3.45,0,0,1,0-.65c-.13-.4-.24-.24-.54-.34Zm3.35,2.38v3.53h5.18c.52,0,2.43.21,3.14-1a1.73,1.73,0,0,0,0-1.68c-.61-1-2.77-.86-3.26-.86Z" style="fill: #1d4ed8"/>
          <path d="M80.08,15.17c2-.24,5.76.32,7.78,2.75a7.88,7.88,0,0,1,1.26,6.93,6.89,6.89,0,0,1-4.88,4.67c-2.4.68-6.21.54-8.75-1.62a7.82,7.82,0,0,1-2.32-6.43A6.55,6.55,0,0,1,77.11,16,8.2,8.2,0,0,1,80.08,15.17Zm-3.6,4.77a5.93,5.93,0,0,0,.12,5.36c1.34,2.11,3.89,2.36,5.28,2.27a5.19,5.19,0,0,0,4.34-2.81,6.29,6.29,0,0,0-.4-5.16,6,6,0,0,0-5.22-2.15A5.08,5.08,0,0,0,76.48,19.94Z" style="fill: #1d4ed8"/>
          <path d="M91.94,15.2l.29,0H96.1v.31l-.47.12v.15l8.7,9.32v-8.8a2.65,2.65,0,0,0,0-.56c0-.16-.31-.25-.5-.25v-.29h3.49v.29a.52.52,0,0,0-.47.27,2.35,2.35,0,0,0,0,.54V28.37a1.91,1.91,0,0,0,0,.57c.14.36.23.27.48.4v.21h-3.67v-.27l.42-.11c.07-.19,0-.3-.27-.52l-8.9-9.45v9.27a5.06,5.06,0,0,0,0,.53c.11.21.12.21.47.34l0,.2H91.92V29.3c.18-.05.4,0,.49-.3a1.44,1.44,0,0,0,0-.54v-12a1.79,1.79,0,0,0,0-.6c-.15-.34-.25-.29-.49-.38Z" style="fill: #1d4ed8"/>
          <path d="M109.83,14.77h.29V15a.41.41,0,0,0,.38.25c.12.06.25,0,.43,0h12.41c.32-.13.23-.11.32-.43h.27v3.28h-.2a.45.45,0,0,0-.3-.42,2.18,2.18,0,0,0-.47-.09c-.36,0-.8,0-1,0h-3.6V28.4a3.7,3.7,0,0,0,0,.58c.18.28.24.32.47.32l0,.24h-3.71v-.26c.24,0,.26,0,.38-.28s0-.33,0-.51V17.54h-4.64a4.7,4.7,0,0,0-.51,0c-.2.09-.25.16-.25.49h-.29Z" style="fill: #1d4ed8"/>
          <path d="M133.38,15.17c2-.24,5.76.32,7.78,2.75a7.88,7.88,0,0,1,1.26,6.93,6.89,6.89,0,0,1-4.88,4.67c-2.4.68-6.21.54-8.75-1.62a7.83,7.83,0,0,1-2.33-6.43,6.58,6.58,0,0,1,4-5.49A8.1,8.1,0,0,1,133.38,15.17Zm-3.6,4.77a5.93,5.93,0,0,0,.12,5.36c1.33,2.11,3.89,2.36,5.28,2.27a5.2,5.2,0,0,0,4.34-2.81,6.29,6.29,0,0,0-.4-5.16,6,6,0,0,0-5.22-2.15A5.06,5.06,0,0,0,129.78,19.94Z" style="fill: #1d4ed8"/>
          <path d="M165.89,16.64l.18-.16.25.13-1.49,2.88-.19-.09v-.33c-2-1.76-5.67-1.85-7.36-1.42a2.71,2.71,0,0,0-2.11,1.46,1.08,1.08,0,0,0,.11,1c.43.63,2.2.66,2.36.68h2.92c1.24.09,4.41.2,5.67,2.34a4.2,4.2,0,0,1,.18,3.66c-1.08,2.1-3.6,2.77-5.46,3a15.76,15.76,0,0,1-4.28-.09,11.53,11.53,0,0,1-2.16-.6,3,3,0,0,0-.54-.19c-.07-.06-.47-.24-.52-.29s-.44-.22-.54-.25-.35-.17-.51.09l-.25-.09,1.66-3.28.25.11c0,.36-.18.21,0,.64a1.7,1.7,0,0,0,.57.58c1.62,1.28,5.44,1.28,7.1.79a2.88,2.88,0,0,0,2-1.42,1.36,1.36,0,0,0-.11-1.19c-.61-.9-2.16-.86-2.7-.9l-3.08-.16c-1.37-.07-3.64-.22-4.83-1.86a3.37,3.37,0,0,1-.46-2.89,4.27,4.27,0,0,1,2.73-2.9c2.45-1.08,6.7-1,10.12.57Z" style="fill: #1a1a1a"/>
          <path d="M182.27,26.78h.25v3.28h-.31a.41.41,0,0,0-.23-.45,1.35,1.35,0,0,0-.52-.06H169.25l0-.26c.19,0,.37,0,.46-.27a2.18,2.18,0,0,0,0-.52V16.28a2.43,2.43,0,0,0,0-.54.45.45,0,0,0-.46-.25v-.27h3.85v.29a.55.55,0,0,0-.49.27,1.65,1.65,0,0,0-.05.59V27.25h8.86s.57,0,.72-.18A1.25,1.25,0,0,1,182.27,26.78Z" style="fill: #1a1a1a"/>
          <path d="M198.48,14.77l.17,0V18h-.17a.86.86,0,0,0-.37-.47,3.23,3.23,0,0,0-.54,0h-9.24V21h5.94a2.41,2.41,0,0,0,.52,0,.57.57,0,0,0,.38-.46h.22v3.31h-.22c-.07-.2-.09-.31-.38-.4a1.25,1.25,0,0,0-.52-.05h-5.94v3.89h10c.25-.13.2-.27.3-.47h.15v3.28h-.15c-.14-.27,0-.31-.3-.45a2.31,2.31,0,0,0-.51-.07H185v-.26a.7.7,0,0,0,.48-.34,1.29,1.29,0,0,0,.06-.56V16.21a2.51,2.51,0,0,0,0-.52c-.12-.31-.23-.2-.48-.29v-.18h12.53a1.7,1.7,0,0,0,.54,0C198.39,15.08,198.3,15.09,198.48,14.77Z" style="fill: #1a1a1a"/>
          <path d="M214.85,14.77l.16,0V18h-.16a.93.93,0,0,0-.38-.47,3.21,3.21,0,0,0-.54,0h-9.24V21h5.94a2.55,2.55,0,0,0,.53,0,.58.58,0,0,0,.37-.46h.22v3.31h-.22c-.07-.2-.09-.31-.37-.4a1.3,1.3,0,0,0-.53-.05h-5.94v3.89h10.05c.25-.13.2-.27.3-.47h.15v3.28H215c-.14-.27,0-.31-.3-.45a2.16,2.16,0,0,0-.51-.07H201.36v-.26a.74.74,0,0,0,.49-.34,1.47,1.47,0,0,0,.05-.56V16.21a2.51,2.51,0,0,0,0-.52c-.12-.31-.23-.2-.48-.29v-.18h12.53a1.69,1.69,0,0,0,.54,0C214.76,15.08,214.67,15.09,214.85,14.77Z" style="fill: #1a1a1a"/>
          <path d="M217.76,15.22h8.88c1.63.07,3.52.09,4.59,2a5.47,5.47,0,0,1-.06,4.45c-1.06,1.83-3.6,1.74-4.72,1.78h-5.38V28.4a2.77,2.77,0,0,0,0,.58.39.39,0,0,0,.45.32v.24h-3.8v-.26c.27,0,.47,0,.47-.37a4.56,4.56,0,0,0,0-.64V15.73c0-.2-.18-.17-.47-.27Zm3.31,2.34v3.57h4.77c.67,0,2.31.21,2.85-.72a2.81,2.81,0,0,0,.05-2.13c-.52-.92-2.48-.72-2.74-.72Z" style="fill: #1a1a1a"/>
          <path d="M241.1,15.22h8.29c1.94,0,4.86.11,6.53,3.08a10.3,10.3,0,0,1,0,8.39c-1.64,2.79-4.11,2.85-6.45,2.85h-8.25v-.26a.47.47,0,0,0,.47-.27,1.62,1.62,0,0,0,0-.55v-12c0-.68.07-.63-.6-1Zm3.43,12.06h5c1.46,0,2.9.11,3.85-1.51a7.4,7.4,0,0,0,0-6.43c-1.1-2-3.42-1.83-4.61-1.83h-4.3Z" style="fill: #1a1a1a"/>
          <path d="M272.86,14.77l.16,0V18h-.16a.93.93,0,0,0-.38-.47,3.21,3.21,0,0,0-.54,0h-9.23V21h5.94a2.46,2.46,0,0,0,.52,0,.61.61,0,0,0,.38-.46h.21v3.31h-.21c-.07-.2-.09-.31-.38-.4a1.27,1.27,0,0,0-.52-.05h-5.94v3.89h10c.25-.13.2-.27.31-.47h.14v3.28h-.14c-.15-.27,0-.31-.31-.45a2.15,2.15,0,0,0-.5-.07H259.37v-.26a.74.74,0,0,0,.49-.34,1.47,1.47,0,0,0,.05-.56V16.21a3.33,3.33,0,0,0,0-.52c-.13-.31-.24-.2-.49-.29v-.18h12.53a1.68,1.68,0,0,0,.54,0C272.77,15.08,272.68,15.09,272.86,14.77Z" style="fill: #1a1a1a"/>
          <path d="M275.75,15.2a1.57,1.57,0,0,1,.29,0h3.87v.31l-.46.12v.15l8.69,9.32v-8.8a2.65,2.65,0,0,0,0-.56c-.05-.16-.3-.25-.5-.25v-.29h3.49v.29a.53.53,0,0,0-.47.27,3.16,3.16,0,0,0,0,.54V28.37a2.27,2.27,0,0,0,0,.57c.15.36.24.27.49.4v.21h-3.67v-.27l.41-.11c.07-.19,0-.3-.27-.52l-8.9-9.45v9.27a5.06,5.06,0,0,0,0,.53c.11.21.13.21.47.34l0,.2h-3.44V29.3c.18-.05.39,0,.48-.3a1.45,1.45,0,0,0,.06-.54v-12a1.8,1.8,0,0,0-.06-.6c-.14-.34-.25-.29-.48-.38Z" style="fill: #1a1a1a"/>
          <path d="M293.65,14.77h.28V15a.41.41,0,0,0,.38.25,1,1,0,0,0,.43,0h12.41c.32-.13.23-.11.32-.43h.27v3.28h-.19a.44.44,0,0,0-.31-.42,2.06,2.06,0,0,0-.47-.09c-.36,0-.79,0-1,0h-3.6V28.4a2.77,2.77,0,0,0,0,.58c.18.28.23.32.47.32l0,.24h-3.71v-.26c.23,0,.25,0,.38-.28s0-.33,0-.51V17.54h-4.65a4.44,4.44,0,0,0-.5,0c-.2.09-.26.16-.26.49h-.28Z" style="fill: #1a1a1a"/>
          <path d="M310.24,15.22h4.16v.24c-.65.21-.63.14-.63.84V28.37c0,.63,0,.7.78.88v.29h-4.18v-.28c.75-.26.65-.19.65-.89V16c0-.3-.35-.36-.78-.54Z" style="fill: #1a1a1a"/>
          <path d="M330.78,16.64l.18-.16.26.13-1.5,2.88-.18-.09v-.33c-2-1.76-5.67-1.85-7.36-1.42a2.7,2.7,0,0,0-2.11,1.46,1.08,1.08,0,0,0,.11,1c.43.63,2.2.66,2.36.68h2.91c1.25.09,4.42.2,5.68,2.34a4.23,4.23,0,0,1,.18,3.66c-1.08,2.1-3.6,2.77-5.46,3a15.76,15.76,0,0,1-4.28-.09,11.85,11.85,0,0,1-2.17-.6,2.73,2.73,0,0,0-.54-.19c-.07-.06-.46-.24-.52-.29a4.56,4.56,0,0,0-.54-.25c-.21-.08-.34-.17-.5.09l-.25-.09,1.65-3.28.25.11c0,.36-.18.21,0,.64a1.65,1.65,0,0,0,.58.58c1.62,1.28,5.44,1.28,7.09.79a2.84,2.84,0,0,0,2-1.42,1.32,1.32,0,0,0-.1-1.19c-.62-.9-2.17-.86-2.71-.9l-3.07-.16c-1.37-.07-3.64-.22-4.83-1.86a3.37,3.37,0,0,1-.47-2.89,4.31,4.31,0,0,1,2.74-2.9c2.45-1.08,6.7-1,10.12.57Z" style="fill: #1a1a1a"/>
          <path d="M334.15,14.77h.28V15a.41.41,0,0,0,.38.25,1,1,0,0,0,.43,0h12.41c.32-.13.23-.11.32-.43h.27v3.28h-.19a.44.44,0,0,0-.31-.42,2.06,2.06,0,0,0-.47-.09c-.36,0-.79,0-1,0h-3.6V28.4a2.77,2.77,0,0,0,0,.58c.18.28.23.32.47.32l0,.24h-3.71v-.26c.23,0,.25,0,.38-.28s0-.33,0-.51V17.54h-4.65a4.44,4.44,0,0,0-.5,0c-.2.09-.26.16-.26.49h-.28Z" style="fill: #1a1a1a"/>
          <path d="M350.76,15.22h9c1.53,0,4,.09,5.19,2.29a4.39,4.39,0,0,1-.13,4.14,4.86,4.86,0,0,1-3.24,1.94l3.6,5.08c.45.59.29.47.9.67l0,.2h-4.34v-.2l.32-.18c0-.07,0-.07,0-.18l-.13-.22-3.74-5.29h-4v5a3.24,3.24,0,0,0,0,.52.54.54,0,0,0,.52.3v.26h-3.92v-.26c.22-.07.34.08.54-.21a2.84,2.84,0,0,0,0-.58v-12a3.45,3.45,0,0,1,0-.65c-.13-.4-.23-.24-.54-.34Zm3.35,2.38v3.53h5.18c.53,0,2.44.21,3.14-1a1.73,1.73,0,0,0,0-1.68c-.61-1-2.77-.86-3.26-.86Z" style="fill: #1a1a1a"/>
          <path d="M366.94,15.22h4.27l0,.27-.23.09v.18L374.7,21l3.53-4.91c.13-.25.2-.25.2-.49l-.31-.16v-.2h4v.27c-.57.2-.59.2-1.08.83l-4.9,7v5.23a4.88,4.88,0,0,0,0,.52c.11.27.18.18.43.27v.2h-3.73v-.2a.47.47,0,0,0,.43-.27,4.92,4.92,0,0,0,0-.52v-4.9l-5.42-7.49c-.47-.63-.27-.47-.94-.67Z" style="fill: #1a1a1a"/>
        </g>
        <path d="M396.17,43.41a18.45,18.45,0,0,1,7.11,1.42h0a18.67,18.67,0,0,1-1.41-7.11V7.11A18.63,18.63,0,0,1,403.28,0a18.63,18.63,0,0,1-7.11,1.41H7.11A18.63,18.63,0,0,1,0,0,18.63,18.63,0,0,1,1.41,7.11V37.72A18.67,18.67,0,0,1,0,44.83H0a18.45,18.45,0,0,1,7.11-1.42Zm1.7-38v34H5.41v-34Z" style="fill: #1a1a1a"/>
      </g>
    </g>
  </g>
</svg>
