<svg xmlns="http://www.w3.org/2000/svg" width="198.43" height="198.43" viewBox="0 0 198.43 198.43">
  <g id="Layer_2" data-name="Layer 2">
    <g id="Layer_1-2" data-name="Layer 1">
      <rect x="16.79" y="16.79" width="164.86" height="164.86" style="fill: #fff"/>
      <path d="M26.43,25.58h.73V26a1,1,0,0,0,.95.64,3,3,0,0,0,1.1,0H60.63c.82-.32.59-.27.82-1.09h.68v8.3h-.5a1.11,1.11,0,0,0-.77-1,4.57,4.57,0,0,0-1.19-.23c-.91,0-2,0-2.51,0H48v27.5a7.67,7.67,0,0,0,.05,1.45c.45.73.59.83,1.18.83l0,.59h-9.4v-.64c.6,0,.64,0,1-.73,0-.45.05-.82.05-1.27V32.61H29.07s-1.14,0-1.28,0c-.5.23-.63.41-.63,1.23h-.73Z" style="fill: #005ae0"/>
      <path d="M115,29.89l.44-.4.62.31-3.66,7.05-.44-.22v-.8c-4.89-4.31-13.87-4.53-18-3.48-2,.53-4.36,1.33-5.16,3.57A2.54,2.54,0,0,0,89,38.43c1,1.54,5.37,1.63,5.77,1.68h7.13c3,.22,10.79.48,13.88,5.72a10.27,10.27,0,0,1,.44,8.94c-2.65,5.16-8.81,6.79-13.35,7.27a38,38,0,0,1-10.48-.22,28,28,0,0,1-5.29-1.45,6.79,6.79,0,0,0-1.32-.49c-.18-.13-1.14-.57-1.28-.7s-1-.53-1.32-.62c-.53-.17-.83-.39-1.23.22l-.62-.22,4-8,.62.26c0,.88-.44.53,0,1.58a4.26,4.26,0,0,0,1.42,1.41c4,3.13,13.3,3.13,17.35,1.94,1.45-.35,4.14-1.49,4.84-3.48a3.21,3.21,0,0,0-.26-2.9c-1.5-2.21-5.29-2.12-6.61-2.21l-7.53-.39c-3.35-.18-8.9-.53-11.8-4.54a8.27,8.27,0,0,1-1.15-7.09c1-3.48,3.22-5.6,6.7-7.09,6-2.65,16.38-2.47,24.75,1.41Z" style="fill: #d6d6d6"/>
      <path d="M136.3,28h18.85c4.42.09,11.06.25,14.87,7,2.54,4.47,2.79,14.14-.08,19.1-3.73,6.35-9.34,6.47-14.67,6.47H136.5V60a1.07,1.07,0,0,0,1.07-.62,4.32,4.32,0,0,0,.08-1.27V30.9c0-1.55.17-1.43-1.35-2.29Zm7.78,27.46h11.44c3.32,0,6.59.24,8.76-3.44,2.26-3.86,2.3-10.74.09-14.63-2.5-4.47-7.79-4.18-10.49-4.18h-9.8Z" style="fill: #d6d6d6"/>
      <path d="M26.43,80.52h.73V81a1,1,0,0,0,.95.64,3,3,0,0,0,1.1,0H60.63c.82-.32.59-.27.82-1.09h.68v8.3h-.5a1.11,1.11,0,0,0-.77-1.05,4.19,4.19,0,0,0-1.19-.23c-.91,0-2,0-2.51,0H48V115a7.77,7.77,0,0,0,.05,1.46c.45.73.59.82,1.18.82l0,.6h-9.4v-.64c.6,0,.64,0,1-.73,0-.46.05-.82.05-1.28V87.54H29.07a11.84,11.84,0,0,0-1.28,0c-.5.23-.63.41-.63,1.23h-.73Z" style="fill: #d6d6d6"/>
      <path d="M115,84.82l.44-.39.62.31-3.66,7-.44-.22v-.79c-4.89-4.32-13.87-4.54-18-3.48-2,.53-4.36,1.32-5.16,3.57A2.54,2.54,0,0,0,89,93.37c1,1.54,5.37,1.63,5.77,1.67h7.13c3,.22,10.79.49,13.88,5.73a10.27,10.27,0,0,1,.44,8.94c-2.65,5.15-8.81,6.78-13.35,7.27a38.37,38.37,0,0,1-10.48-.22,28.06,28.06,0,0,1-5.29-1.46,7.35,7.35,0,0,0-1.32-.48c-.18-.13-1.14-.57-1.28-.71s-1-.53-1.32-.61c-.53-.18-.83-.4-1.23.22l-.62-.22,4-8,.62.27c0,.88-.44.52,0,1.58a4.36,4.36,0,0,0,1.42,1.41c4,3.13,13.3,3.13,17.35,1.94,1.45-.35,4.14-1.5,4.84-3.48a3.23,3.23,0,0,0-.26-2.91c-1.5-2.2-5.29-2.11-6.61-2.2l-7.53-.4c-3.35-.17-8.9-.53-11.8-4.53a8.27,8.27,0,0,1-1.15-7.09c1-3.49,3.22-5.6,6.7-7.1,6-2.64,16.38-2.46,24.75,1.41Z"/>
      <path d="M136.3,82.93h18.85c4.42.08,11.06.25,14.87,7,2.54,4.46,2.79,14.13-.08,19.09-3.73,6.35-9.34,6.48-14.67,6.48H136.5v-.58a1.06,1.06,0,0,0,1.07-.61,4.36,4.36,0,0,0,.08-1.27V85.84c0-1.56.17-1.43-1.35-2.29Zm7.78,27.45h11.44c3.32,0,6.59.25,8.76-3.44,2.26-3.85,2.3-10.73.09-14.63-2.5-4.46-7.79-4.17-10.49-4.17h-9.8Z" style="fill: #d6d6d6"/>
      <path d="M26.43,135.46h.73v.45a1,1,0,0,0,.95.64,2.77,2.77,0,0,0,1.1,0H60.63c.82-.32.59-.28.82-1.1h.68v8.3h-.5a1.13,1.13,0,0,0-.77-1.05,5,5,0,0,0-1.19-.23c-.91,0-2,0-2.51,0H48V170a7.77,7.77,0,0,0,.05,1.46c.45.73.59.82,1.18.82l0,.59h-9.4v-.64c.6,0,.64,0,1-.73,0-.45.05-.82.05-1.27V142.48H29.07s-1.14,0-1.28,0c-.5.23-.63.42-.63,1.24h-.73Z" style="fill: #d6d6d6"/>
      <path d="M115,139.76l.44-.4.62.31-3.66,7.05-.44-.22v-.79c-4.89-4.32-13.87-4.54-18-3.48-2,.53-4.36,1.32-5.16,3.56a2.56,2.56,0,0,0,.27,2.52c1,1.54,5.37,1.63,5.77,1.67h7.13c3,.22,10.79.48,13.88,5.72a10.29,10.29,0,0,1,.44,9c-2.65,5.15-8.81,6.78-13.35,7.26a37.6,37.6,0,0,1-10.48-.22,27.3,27.3,0,0,1-5.29-1.45,6.64,6.64,0,0,0-1.32-.48c-.18-.14-1.14-.58-1.28-.71s-1-.53-1.32-.62c-.53-.17-.83-.39-1.23.22l-.62-.22,4-8,.62.26c0,.88-.44.53,0,1.59a4.45,4.45,0,0,0,1.42,1.41c4,3.12,13.3,3.12,17.35,1.94,1.45-.36,4.14-1.5,4.84-3.48a3.23,3.23,0,0,0-.26-2.91c-1.5-2.2-5.29-2.12-6.61-2.2l-7.53-.4c-3.35-.18-8.9-.53-11.8-4.54A8.26,8.26,0,0,1,82.33,145c1-3.48,3.22-5.59,6.7-7.09,6-2.64,16.38-2.47,24.75,1.41Z" style="fill: #d6d6d6"/>
      <path d="M136.3,137.87h18.85c4.42.08,11.06.24,14.87,7,2.54,4.47,2.79,14.14-.08,19.1-3.73,6.35-9.34,6.47-14.67,6.47H136.5v-.57a1.06,1.06,0,0,0,1.07-.62,4.32,4.32,0,0,0,.08-1.27v-27.2c0-1.56.17-1.44-1.35-2.3Zm7.78,27.45h11.44c3.32,0,6.59.25,8.76-3.44,2.26-3.85,2.3-10.74.09-14.63-2.5-4.47-7.79-4.18-10.49-4.18h-9.8Z"/>
      <path d="M181,194.73a42.9,42.9,0,0,1,17.41,3.7,48.64,48.64,0,0,1-3.7-18.6V18.61A48.69,48.69,0,0,1,198.43,0,42.9,42.9,0,0,1,181,3.7H18.6A48.67,48.67,0,0,1,0,0,48.69,48.69,0,0,1,3.7,18.61V179.83A48.64,48.64,0,0,1,0,198.43a48.67,48.67,0,0,1,18.6-3.7Zm.63-13.08H16.79V16.79H181.65Z"/>
    </g>
  </g>
</svg>
