<?xml version="1.0" encoding="utf-8"?>
<!-- Generator: Adobe Illustrator 24.2.0, SVG Export Plug-In . SVG Version: 6.00 Build 0)  -->
<svg version="1.1" id="Layer_1" xmlns="http://www.w3.org/2000/svg" viewBox="0 0 24 24" width="24" height="24">
<style type="text/css">
	.st0{fill:none;}
	.st1{fill:#1D4ED8;}
</style>
<path class="st0" d="M0,0h24v24H0V0z"/>
<path class="st1" d="M21,3H3C2.4,3,2,3.4,2,4v16c0,0.5,0.4,1,1,1h1.8H21c0.5,0,1-0.4,1-1V4C22,3.4,21.6,3,21,3z M15.4,11.2
	c-0.2,0.5-0.3,1-0.3,1.5c0.2,1.6,0.3,3.5-0.7,4.4c-0.2,0.1-0.4,0.1-0.6,0c-1-0.9-0.2-4.2-1.9-4.1l0,0c-1.7,0-0.9,3.2-1.9,4.1
	c-0.2,0.1-0.4,0.2-0.6,0c-1.1-0.9-0.9-2.8-0.7-4.4c0.1-0.5,0-1-0.3-1.5C7.5,9,8,5.5,11.2,6.9C11.5,7,11.8,7.1,12,7.1
	c0.2,0,0.5,0,0.8-0.2C16,5.5,16.5,9,15.4,11.2z"/>
</svg>
